<svg width="24" height="33" viewBox="0 0 24 33" fill="none" xmlns="http://www.w3.org/2000/svg">
<path d="M4.00397 5.57384H20.2577V11.422H4.00397V5.57384Z" fill="#688D97"/>
<path d="M22.7214 28.2182V32.336C22.7214 32.7028 22.3971 33 21.997 33H2.26446C1.86438 33 1.5401 32.7028 1.5401 32.336V28.2182C1.5401 23.6186 5.60775 19.8899 10.6255 19.8899H13.636C18.6537 19.8899 22.7214 23.6186 22.7214 28.2182V28.2182Z" fill="#FB4A59"/>
<path d="M19.127 27.3382V33H18.0405V27.3382C18.0405 27.0633 18.2839 26.8402 18.5837 26.8402C18.8844 26.8402 19.127 27.0633 19.127 27.3382Z" fill="#F82F40"/>
<path d="M6.22057 27.3382V33H5.13403V27.3382C5.13403 27.0633 5.37738 26.8402 5.67727 26.8402C5.97722 26.8402 6.22057 27.0633 6.22057 27.3382Z" fill="#F82F40"/>
<path d="M22.7215 28.2184V32.3358C22.7215 32.7025 22.3972 32.9998 21.9971 32.9998H20.267V28.2184C20.267 23.6187 16.1993 19.8899 11.1821 19.8899H13.6358C18.6537 19.8899 22.7215 23.6187 22.7215 28.2184V28.2184Z" fill="#F82F40"/>
<path d="M14.0579 17.8967V21.0399C14.0579 22.0153 13.1949 22.8063 12.1309 22.8063C11.0661 22.8063 10.2031 22.0152 10.2031 21.0399V17.8967H14.0579Z" fill="#FDB0A0"/>
<path d="M14.0579 17.8967V20.2667C13.4748 20.5079 12.8216 20.6432 12.1309 20.6432C11.4401 20.6432 10.7862 20.5079 10.2031 20.2667V17.8967H14.0579Z" fill="#F9A08F"/>
<path d="M19.2073 14.0466C20.4263 14.0466 21.4145 13.1408 21.4145 12.0233C21.4145 10.9059 20.4263 10 19.2073 10C17.9882 10 17 10.9059 17 12.0233C17 13.1408 17.9882 14.0466 19.2073 14.0466Z" fill="#F9A08F"/>
<path d="M5.14292 13.6344C6.36195 13.6344 7.35017 12.7285 7.35017 11.6111C7.35017 10.4936 6.36195 9.58774 5.14292 9.58774C3.92389 9.58774 2.93567 10.4936 2.93567 11.6111C2.93567 12.7285 3.92389 13.6344 5.14292 13.6344Z" fill="#F9A08F"/>
<path d="M18.4944 8.95139V12.8381C18.4944 16.0549 15.6877 18.7199 12.1785 18.7445C8.64179 18.7677 5.76636 16.1478 5.76636 12.9111V8.95139C5.76636 5.72931 8.61648 3.11806 12.1308 3.11806C13.8887 3.11806 15.4792 3.77071 16.6308 4.82639C17.7817 5.88271 18.4944 7.3407 18.4944 8.95139V8.95139Z" fill="#FDB0A0"/>
<path d="M18.4944 8.95139V9.79991C17.9838 9.95331 17.4406 10.0343 16.8814 10.0343H7.3808C6.82168 10.0343 6.27844 9.9526 5.76636 9.7992V8.95139C5.76636 5.72931 8.61648 3.11806 12.1308 3.11806C13.8887 3.11806 15.4792 3.77071 16.6308 4.82639C17.7817 5.88271 18.4944 7.3407 18.4944 8.95139Z" fill="#F9A08F"/>
<path d="M15.1235 11.954C15.1213 11.954 15.1192 11.954 15.117 11.9539C14.817 11.9508 14.5736 11.7252 14.5771 11.4502C14.5805 11.1771 14.8201 10.9579 15.1171 10.9579C15.1193 10.9579 15.1214 10.9579 15.1236 10.958L15.1297 10.9581C15.4298 10.9612 15.6701 11.1867 15.6666 11.4618C15.6632 11.7348 15.4206 11.954 15.1235 11.954V11.954Z" fill="#BA5D4F"/>
<path d="M9.1441 11.954C8.84401 11.954 8.59778 11.7311 8.59778 11.456C8.59778 11.181 8.83803 10.9581 9.13805 10.9581H9.1441C9.44419 10.9581 9.68732 11.181 9.68732 11.456C9.68732 11.7311 9.44412 11.954 9.1441 11.954V11.954Z" fill="#BA5D4F"/>
<path d="M9.47011 0C6.67645 0 4.25953 1.82428 3.77381 4.34614C3.73718 4.5364 3.70715 4.72925 3.68402 4.92428C3.6168 5.49166 3.70518 6.06575 3.94214 6.59355L3.94298 6.59542C4.51631 7.87263 5.87404 8.70633 7.3807 8.70633H16.8817C18.39 8.70633 19.7488 7.87095 20.3211 6.59175C20.5568 6.06491 20.6445 5.49224 20.5776 4.92615C20.5545 4.73047 20.5244 4.53705 20.4876 4.3462C20.0019 1.82435 17.585 0 14.7913 0L9.47011 0Z" fill="#3F5959"/>
<path d="M20.5993 5.29578C20.5993 5.73928 20.5051 6.1795 20.3212 6.59181C19.749 7.8712 18.3902 8.70645 16.8815 8.70645H14.6174C16.1261 8.70645 17.4849 7.8712 18.0571 6.59181C18.241 6.1795 18.3351 5.73935 18.3351 5.29578C18.3351 5.17293 18.3279 5.04944 18.3134 4.92595C18.2902 4.73079 18.2605 4.53685 18.2236 4.34632C17.7376 1.82401 15.3206 0.000183105 12.527 0.000183105H14.7911C17.5847 0.000183105 20.0017 1.82401 20.4877 4.34632C20.5246 4.53685 20.5543 4.73072 20.5775 4.92595C20.592 5.04944 20.5993 5.17293 20.5993 5.29578V5.29578Z" fill="#384848"/>
<path d="M11.6516 11.8831C10.6185 12.228 8.22496 13.24 7.60522 15.3624V17.1692C7.60522 17.7692 7.98027 18.3155 8.56963 18.5766C9.34019 18.9178 10.552 19.2975 12.1308 19.2975C13.7095 19.2975 14.9214 18.9179 15.692 18.5766C16.2814 18.3155 16.6564 17.7692 16.6564 17.1692V15.3624C16.0367 13.24 13.6431 12.228 12.61 11.8831C12.3003 11.7797 11.9613 11.7797 11.6516 11.8831V11.8831Z" fill="#EFF5F6"/>
<path d="M16.6565 15.3627V17.1694C16.6565 17.769 16.2813 18.3154 15.6917 18.5763C14.9666 18.8977 13.8496 19.2529 12.4038 19.2935C12.9485 19.16 13.4042 18.9927 13.7642 18.8333C14.3538 18.5724 14.7283 18.0259 14.7283 17.4257V15.619C14.1394 13.6005 11.9453 12.5866 10.8429 12.1955C11.1537 12.0587 11.4325 11.9558 11.6513 11.8828C11.9613 11.7798 12.3003 11.7798 12.6103 11.8828C13.6432 12.228 16.0365 13.24 16.6565 15.3627V15.3627Z" fill="#CBE5E7"/>
<path d="M12.9915 17.621H11.27C11.07 17.621 10.9078 17.4724 10.9078 17.289V15.711C10.9078 15.5276 11.07 15.379 11.27 15.379H12.9915C13.1916 15.379 13.3537 15.5276 13.3537 15.711V17.289C13.3537 17.4724 13.1915 17.621 12.9915 17.621Z" fill="#8DCAFC"/>
</svg>
